<?xml version="1.0" encoding="UTF-8" standalone="no"?><!DOCTYPE svg PUBLIC "-//W3C//DTD SVG 1.1//EN" "http://www.w3.org/Graphics/SVG/1.1/DTD/svg11.dtd"><svg width="100%" height="100%" viewBox="0 0 4725 4725" version="1.1" xmlns="http://www.w3.org/2000/svg" xmlns:xlink="http://www.w3.org/1999/xlink" xml:space="preserve" style="fill-rule:evenodd;clip-rule:evenodd;stroke-linejoin:round;stroke-miterlimit:1.41421;"><path d="M4617.92,323.351c0,-125.03 -101.509,-226.539 -226.54,-226.539l-4077.71,0c-125.031,0 -226.539,101.509 -226.539,226.539l0,4077.71c0,125.031 101.508,226.54 226.539,226.54l4077.71,0c125.031,0 226.54,-101.509 226.54,-226.54l0,-4077.71Z" style="fill:#252525;"/><path d="M4284.07,2707.54c0,-47.961 -38.939,-86.9 -86.9,-86.9l-3656.08,0c-47.961,0 -86.9,38.939 -86.9,86.9l0,1564.2c0,47.962 38.939,86.9 86.9,86.9l3656.08,0c47.961,0 86.9,-38.938 86.9,-86.9l0,-1564.2Z" style="fill:none;stroke:#ebebeb;stroke-width:4.01px;"/><ellipse cx="314.873" cy="344.65" rx="63.163" ry="63.896" style="fill:#d92626;"/><ellipse cx="481.357" cy="344.65" rx="63.163" ry="63.896" style="fill:#f2af0d;"/><ellipse cx="645.81" cy="344.65" rx="63.163" ry="63.896" style="fill:#5ebf40;"/><path d="M4284.07,832.093c0,-47.883 -38.875,-86.758 -86.758,-86.758l-3656.36,0c-47.883,0 -86.758,38.875 -86.758,86.758l0,1561.65c0,47.883 38.875,86.758 86.758,86.758l3656.36,0c47.883,0 86.758,-38.875 86.758,-86.758l0,-1561.65Z" style="fill:none;stroke:#ebebeb;stroke-width:4.01px;"/></svg>