<?xml version="1.0" encoding="UTF-8" standalone="no"?><!DOCTYPE svg PUBLIC "-//W3C//DTD SVG 1.1//EN" "http://www.w3.org/Graphics/SVG/1.1/DTD/svg11.dtd"><svg width="100%" height="100%" viewBox="0 0 4725 4725" version="1.1" xmlns="http://www.w3.org/2000/svg" xmlns:xlink="http://www.w3.org/1999/xlink" xml:space="preserve" style="fill-rule:evenodd;clip-rule:evenodd;stroke-linejoin:round;stroke-miterlimit:1.41421;"><path d="M4617.92,323.351c0,-125.03 -101.509,-226.539 -226.54,-226.539l-4077.71,0c-125.031,0 -226.539,101.509 -226.539,226.539l0,4077.71c0,125.031 101.508,226.54 226.539,226.54l4077.71,0c125.031,0 226.54,-101.509 226.54,-226.54l0,-4077.71Z" style="fill:#252525;"/><path d="M4284.07,753.648c0,-47.334 -38.429,-85.762 -85.762,-85.762l-1543.72,0c-47.334,0 -85.763,38.428 -85.763,85.762l0,1712.58c0,47.333 38.429,85.762 85.763,85.762l1543.72,0c47.333,0 85.762,-38.429 85.762,-85.762l0,-1712.58Z" style="fill:none;stroke:#ebebeb;stroke-width:4.01px;"/><path d="M4284.07,2762.72c0,-46.359 -37.637,-83.996 -83.996,-83.996l-1547.25,0c-46.358,0 -83.996,37.637 -83.996,83.996l0,1511.93c0,46.358 37.638,83.995 83.996,83.995l1547.25,0c46.359,0 83.996,-37.637 83.996,-83.995l0,-1511.93Z" style="fill:none;stroke:#ebebeb;stroke-width:4.01px;"/><ellipse cx="314.873" cy="344.65" rx="63.163" ry="63.896" style="fill:#d92626;"/><ellipse cx="481.357" cy="344.65" rx="63.163" ry="63.896" style="fill:#f2af0d;"/><ellipse cx="645.81" cy="344.65" rx="63.163" ry="63.896" style="fill:#5ebf40;"/><path d="M2398.2,765.086c0,-53.646 -43.554,-97.2 -97.201,-97.2l-1749.61,0c-53.646,0 -97.2,43.554 -97.2,97.2l0,3496.36c0,53.646 43.554,97.2 97.2,97.2l1749.61,0c53.647,0 97.201,-43.554 97.201,-97.2l0,-3496.36Z" style="fill:none;stroke:#ebebeb;stroke-width:4.01px;"/></svg>