<?xml version="1.0" encoding="UTF-8" standalone="no"?><!DOCTYPE svg PUBLIC "-//W3C//DTD SVG 1.1//EN" "http://www.w3.org/Graphics/SVG/1.1/DTD/svg11.dtd"><svg width="100%" height="100%" viewBox="0 0 4725 4725" version="1.1" xmlns="http://www.w3.org/2000/svg" xmlns:xlink="http://www.w3.org/1999/xlink" xml:space="preserve" style="fill-rule:evenodd;clip-rule:evenodd;stroke-linejoin:round;stroke-miterlimit:1.41421;"><path d="M4617.92,323.351c0,-125.03 -101.509,-226.539 -226.54,-226.539l-4077.71,0c-125.031,0 -226.539,101.509 -226.539,226.539l0,4077.71c0,125.031 101.508,226.54 226.539,226.54l4077.71,0c125.031,0 226.54,-101.509 226.54,-226.54l0,-4077.71Z" style="fill:#252525;"/><path d="M4284.07,3287.91c0,-30.086 -24.426,-54.512 -54.513,-54.512l-1654.63,0c-30.086,0 -54.512,24.426 -54.512,54.512l0,981.224c0,30.086 24.426,54.513 54.512,54.513l1654.63,0c30.087,0 54.513,-24.427 54.513,-54.513l0,-981.224Z" style="fill:none;stroke:#ebebeb;stroke-width:4.01px;"/><path d="M2352.52,3287.91c0,-30.086 -24.427,-54.512 -54.513,-54.512l-1789.31,0c-30.086,0 -54.512,24.426 -54.512,54.512l0,981.224c0,30.086 24.426,54.513 54.512,54.513l1789.31,0c30.086,0 54.513,-24.427 54.513,-54.513l0,-981.224Z" style="fill:none;stroke:#ebebeb;stroke-width:4.01px;"/><ellipse cx="314.873" cy="344.65" rx="63.163" ry="63.896" style="fill:#d92626;"/><ellipse cx="481.357" cy="344.65" rx="63.163" ry="63.896" style="fill:#f2af0d;"/><ellipse cx="645.81" cy="344.65" rx="63.163" ry="63.896" style="fill:#5ebf40;"/><path d="M4284.07,1543.17c0,-44.945 -36.489,-81.434 -81.434,-81.434l-3667.01,0c-44.945,0 -81.434,36.489 -81.434,81.434l0,1465.8c0,44.944 36.489,81.434 81.434,81.434l3667.01,0c44.945,0 81.434,-36.49 81.434,-81.434l0,-1465.8Z" style="fill:none;stroke:#ebebeb;stroke-width:4.01px;"/><path d="M4284.07,596.282c0,-20.9 -16.968,-37.868 -37.868,-37.868l-3754.14,0c-20.9,0 -37.868,16.968 -37.868,37.868l0,681.63c0,20.9 16.968,37.868 37.868,37.868l3754.14,0c20.9,0 37.868,-16.968 37.868,-37.868l0,-681.63Z" style="fill:none;stroke:#ebebeb;stroke-width:4.01px;"/></svg>