<?xml version="1.0" encoding="UTF-8" standalone="no"?>
<!DOCTYPE svg PUBLIC "-//W3C//DTD SVG 1.1//EN" "http://www.w3.org/Graphics/SVG/1.1/DTD/svg11.dtd">
<svg width="100%" height="100%" viewBox="0 0 4725 4725" version="1.1" xmlns="http://www.w3.org/2000/svg" xmlns:xlink="http://www.w3.org/1999/xlink" xml:space="preserve" style="fill-rule:evenodd;clip-rule:evenodd;stroke-linejoin:round;stroke-miterlimit:1.41421;">
    <path d="M4617.92,323.351C4617.92,198.321 4516.41,96.812 4391.38,96.812L313.67,96.812C188.639,96.812 87.131,198.321 87.131,323.351L87.131,4401.06C87.131,4526.09 188.639,4627.6 313.67,4627.6L4391.38,4627.6C4516.41,4627.6 4617.92,4526.09 4617.92,4401.06L4617.92,323.351Z" style="fill:rgb(37,37,37);"/>
    <g transform="matrix(0.956797,0,0,0.603463,121.849,1011.96)">
        <path d="M4350.16,835.668C4350.16,785.812 4324.64,745.335 4293.19,745.335L2614.44,745.335C2583,745.335 2557.47,785.812 2557.47,835.668L2557.47,2461.66C2557.47,2511.51 2583,2551.99 2614.44,2551.99L4293.19,2551.99C4324.64,2551.99 4350.16,2511.51 4350.16,2461.66L4350.16,835.668Z" style="fill:none;stroke:rgb(235,235,235);stroke-width:5.01px;"/>
    </g>
    <g transform="matrix(0.956797,0,0,0.929849,121.849,1985.68)">
        <path d="M4350.16,835.668C4350.16,785.812 4310.83,745.335 4262.38,745.335L2645.26,745.335C2596.81,745.335 2557.47,785.812 2557.47,835.668L2557.47,2461.66C2557.47,2511.51 2596.81,2551.99 2645.26,2551.99L4262.38,2551.99C4310.83,2551.99 4350.16,2511.51 4350.16,2461.66L4350.16,835.668Z" style="fill:none;stroke:rgb(235,235,235);stroke-width:4.25px;"/>
    </g>
    <g transform="matrix(1.08738,0,0,1.32,-21.9948,-89.8412)">
        <ellipse cx="309.797" cy="329.16" rx="58.087" ry="48.406" style="fill:rgb(217,38,38);"/>
    </g>
    <g transform="matrix(1.08738,0,0,1.32,144.489,-89.8412)">
        <ellipse cx="309.797" cy="329.16" rx="58.087" ry="48.406" style="fill:rgb(242,175,13);"/>
    </g>
    <g transform="matrix(1.08738,0,0,1.32,308.942,-89.8412)">
        <ellipse cx="309.797" cy="329.16" rx="58.087" ry="48.406" style="fill:rgb(94,191,64);"/>
    </g>
    <g transform="matrix(1,0,0,0.801731,36,864.183)">
        <path d="M2362.2,866.573C2362.2,799.66 2318.65,745.335 2265,745.335L515.394,745.335C461.748,745.335 418.194,799.66 418.194,866.573L418.194,4237.41C418.194,4304.32 461.748,4358.65 515.394,4358.65L2265,4358.65C2318.65,4358.65 2362.2,4304.32 2362.2,4237.41L2362.2,866.573Z" style="fill:none;stroke:rgb(235,235,235);stroke-width:4.43px;"/>
    </g>
    <g transform="matrix(1.97009,0,0,0.209605,-369.687,402.188)">
        <path d="M2362.2,926C2362.2,826.288 2353.59,745.335 2342.98,745.335L437.416,745.335C426.807,745.335 418.194,826.288 418.194,926L418.194,4177.98C418.194,4277.69 426.807,4358.65 437.416,4358.65L2342.98,4358.65C2353.59,4358.65 2362.2,4277.69 2362.2,4177.98L2362.2,926Z" style="fill:none;stroke:rgb(235,235,235);stroke-width:2.86px;"/>
    </g>
</svg>
