<?xml version="1.0" encoding="UTF-8" standalone="no"?><!DOCTYPE svg PUBLIC "-//W3C//DTD SVG 1.1//EN" "http://www.w3.org/Graphics/SVG/1.1/DTD/svg11.dtd"><svg width="100%" height="100%" viewBox="0 0 4725 4725" version="1.1" xmlns="http://www.w3.org/2000/svg" xmlns:xlink="http://www.w3.org/1999/xlink" xml:space="preserve" style="fill-rule:evenodd;clip-rule:evenodd;stroke-linejoin:round;stroke-miterlimit:1.41421;"><path d="M4627.6,323.351c0,-125.03 -101.509,-226.539 -226.54,-226.539l-4077.71,0c-125.03,0 -226.539,101.509 -226.539,226.539l0,4077.71c0,125.031 101.509,226.54 226.539,226.54l4077.71,0c125.031,0 226.54,-101.509 226.54,-226.54l0,-4077.71Z" style="fill:#252525;"/><path d="M4284.07,820.662c0,-20.202 -16.401,-36.602 -36.602,-36.602l-1642.04,0c-20.202,0 -36.603,16.4 -36.603,36.602l0,658.841c0,20.201 16.401,36.602 36.603,36.602l1642.04,0c20.201,0 36.602,-16.401 36.602,-36.602l0,-658.841Z" style="fill:none;stroke:#ebebeb;stroke-width:4.01px;"/><path d="M4284.07,1666.76c0,-20.201 -16.401,-36.602 -36.602,-36.602l-1642.04,0c-20.202,0 -36.603,16.401 -36.603,36.602l0,658.841c0,20.202 16.401,36.603 36.603,36.603l1642.04,0c20.201,0 36.602,-16.401 36.602,-36.603l0,-658.841Z" style="fill:none;stroke:#ebebeb;stroke-width:4.01px;"/><ellipse cx="314.873" cy="344.65" rx="63.163" ry="63.896" style="fill:#d92626;"/><ellipse cx="481.357" cy="344.65" rx="63.163" ry="63.896" style="fill:#f2af0d;"/><ellipse cx="645.81" cy="344.65" rx="63.163" ry="63.896" style="fill:#5ebf40;"/><path d="M2398.2,881.26c0,-53.646 -43.554,-97.2 -97.201,-97.2l-1749.61,0c-53.646,0 -97.2,43.554 -97.2,97.2l0,3064.54c0,53.647 43.554,97.201 97.2,97.201l1749.61,0c53.647,0 97.201,-43.554 97.201,-97.201l0,-3064.54Z" style="fill:none;stroke:#ebebeb;stroke-width:4.01px;"/><path d="M4284.07,2514.98c0,-20.201 -16.401,-36.602 -36.602,-36.602l-1642.04,0c-20.202,0 -36.603,16.401 -36.603,36.602l0,658.841c0,20.202 16.401,36.602 36.603,36.602l1642.04,0c20.201,0 36.602,-16.4 36.602,-36.602l0,-658.841Z" style="fill:none;stroke:#ebebeb;stroke-width:4.01px;"/><path d="M4284.07,3347.56c0,-20.201 -16.401,-36.602 -36.602,-36.602l-1642.04,0c-20.202,0 -36.603,16.401 -36.603,36.602l0,658.842c0,20.201 16.401,36.602 36.603,36.602l1642.04,0c20.201,0 36.602,-16.401 36.602,-36.602l0,-658.842Z" style="fill:none;stroke:#ebebeb;stroke-width:4.01px;"/><text x="872.488px" y="2473.69px" style="font-family:'ArialMT', 'Arial', sans-serif;font-size:400px;fill:#fff;">Album</text></svg>